<svg viewBox="0 0 672 420" fill="none" xmlns="http://www.w3.org/2000/svg">
	<path vector-effect="non-scaling-stroke" d="M216.773 103.315C233.337 103.315 246.146 106.108 255.199 111.694C264.252 117.28 268.778 124.406 268.778 133.074C268.778 139.43 265.697 146.075 259.533 153.01C253.369 159.944 244.22 165.818 232.085 170.634C219.951 175.256 204.831 177.568 186.725 177.568C164.96 177.568 146.276 173.908 130.674 166.589C115.073 159.269 103.131 149.542 94.8481 137.408C86.5657 125.273 82.4246 111.983 82.4246 97.5368C82.4246 85.4021 85.4101 73.5563 91.3811 61.9995C97.5447 50.4427 106.405 40.0415 117.962 30.7961C129.519 21.5506 143.579 14.2313 160.144 8.83811C176.902 3.44492 195.97 0.748318 217.351 0.748318C237.575 0.748318 256.162 3.63753 273.112 9.41595C290.255 15.1944 305.086 23.2841 317.606 33.6853C330.319 44.0864 340.142 56.4137 347.076 70.6671C354.203 84.728 357.766 100.041 357.766 116.606C357.766 137.408 353.721 157.247 345.631 176.123C337.542 194.999 326.081 211.757 311.25 226.395C296.419 241.034 278.987 252.591 258.955 261.066C238.923 269.541 217.062 273.778 193.37 273.778C180.272 273.778 169.004 272.526 159.566 270.022C150.321 267.518 142.039 264.629 134.719 261.355C127.4 258.08 120.369 255.191 113.628 252.687C107.079 250.183 99.8561 248.931 91.9589 248.931C85.9879 248.931 81.3652 249.894 78.0907 251.82C75.0089 253.554 73.468 256.058 73.468 259.332C73.468 268.193 83.4839 272.623 103.516 272.623C119.117 272.623 135.49 269.156 152.632 262.222C169.775 255.095 186.051 244.79 201.46 231.307C212.631 221.676 223.514 211.468 234.108 200.681C244.702 189.702 255.103 178.627 265.311 167.456C275.52 156.284 285.536 145.305 295.359 134.519C305.375 123.732 315.295 113.62 325.118 104.182C332.437 96.8626 339.371 90.699 345.92 85.691C352.469 80.6831 358.729 76.5419 364.7 73.2674H379.435C371.731 75.1936 363.159 79.0458 353.721 84.8243C344.283 90.4101 335.326 97.4405 326.852 105.915C317.028 115.739 307.783 126.814 299.115 139.141C290.447 151.469 281.876 164.181 273.401 177.279C264.926 190.377 256.066 202.993 246.82 215.128C237.575 227.262 227.366 238.241 216.195 248.064C205.023 257.695 192.503 265.4 178.635 271.178C164.767 276.957 148.973 279.846 131.252 279.846C114.302 279.846 101.59 278.786 93.1146 276.668C84.6396 274.741 78.9575 272.238 76.0683 269.156C73.1791 266.074 71.7345 262.992 71.7345 259.91C71.7345 256.636 72.9865 253.65 75.4905 250.954C78.187 248.257 83.2913 246.909 90.8033 246.909C98.3152 246.909 105.635 248.161 112.761 250.665C120.081 253.169 127.592 256.154 135.297 259.621C143.194 262.896 151.862 265.785 161.3 268.289C170.738 270.793 181.428 272.045 193.37 272.045C215.906 272.045 236.997 268.096 256.644 260.199C276.483 252.109 293.818 240.938 308.649 226.684C323.481 212.431 335.038 195.962 343.32 177.279C351.795 158.403 356.032 138.178 356.032 116.606C356.032 100.233 352.565 85.1132 345.631 71.245C338.89 57.3768 329.259 45.3384 316.739 35.1299C304.219 24.7287 289.484 16.7353 272.534 11.1495C255.584 5.37106 236.997 2.48185 216.773 2.48185C197.897 2.48185 180.369 4.88952 164.189 9.70487C148.202 14.5202 134.141 21.2617 122.007 29.9293C110.065 38.4043 100.723 48.4202 93.9814 59.9771C87.4325 71.5339 84.1581 84.0538 84.1581 97.5368C84.1581 112.753 88.4919 126.236 97.1595 137.986C106.02 149.735 118.154 158.981 133.564 165.722C149.165 172.464 166.982 175.834 187.014 175.834C201.653 175.834 214.943 173.908 226.885 170.056C239.02 166.204 248.65 161.003 255.777 154.454C263.096 147.905 266.756 140.779 266.756 133.074C266.756 124.599 262.23 117.858 253.177 112.85C244.124 107.649 231.989 105.049 216.773 105.049C200.978 105.049 186.532 107.842 173.435 113.427C160.529 119.013 150.225 126.525 142.52 135.963C134.816 145.209 130.963 155.514 130.963 166.878C130.963 176.894 134.141 185.658 140.498 193.17C146.854 200.681 155.81 206.556 167.367 210.794C178.924 214.839 192.407 216.861 207.816 216.861C223.61 216.861 238.249 214.742 251.732 210.505C265.215 206.267 276.868 200.393 286.692 192.881C296.707 185.369 304.508 176.508 310.094 166.3C315.68 156.091 318.473 144.92 318.473 132.785C318.473 117.761 313.657 104.76 304.027 93.7808C294.396 82.6092 280.913 73.9416 263.578 67.7779C246.243 61.6143 225.922 58.5325 202.616 58.5325C180.272 58.5325 158.989 61.3254 138.764 66.9112C118.732 72.497 100.338 80.3941 83.5802 90.6027C67.0154 100.811 52.6657 112.85 40.531 126.718C28.3964 140.586 19.0546 155.995 12.5057 172.945C5.76425 189.702 2.39351 207.423 2.39351 226.106C2.39351 246.524 6.4384 265.207 14.5282 282.157C22.618 299.3 33.9822 314.035 48.6208 326.362C63.2595 338.882 80.691 348.513 100.915 355.254C121.14 361.996 143.387 365.366 167.656 365.366C185.184 365.366 202.134 363.536 218.506 359.877C234.878 356.41 250.191 351.402 264.445 344.853C278.698 338.304 291.218 330.407 302.004 321.161C312.983 312.109 321.747 301.996 328.296 290.825L329.741 291.691C323.192 302.863 314.428 313.072 303.449 322.317C292.47 331.563 279.757 339.556 265.311 346.298C251.058 353.039 235.649 358.143 219.084 361.61C202.519 365.27 185.377 367.1 167.656 367.1C143.194 367.1 120.755 363.633 100.338 356.699C79.9206 349.957 62.2964 340.23 47.4651 327.518C32.6339 314.998 21.1734 300.167 13.0836 283.024C4.80118 265.881 0.659984 246.909 0.659984 226.106C0.659984 207.23 4.03073 189.317 10.7722 172.367C17.5137 155.225 26.9518 139.623 39.0864 125.562C51.4137 111.501 65.9561 99.3666 82.7135 89.1581C99.4709 78.7569 117.962 70.7634 138.186 65.1777C158.603 59.5919 180.08 56.799 202.616 56.799C226.307 56.799 246.917 59.9771 264.445 66.3333C282.165 72.497 295.841 81.2609 305.471 92.6251C315.295 103.989 320.206 117.376 320.206 132.785C320.206 145.112 317.413 156.477 311.828 166.878C306.242 177.279 298.345 186.332 288.136 194.036C278.12 201.741 266.274 207.808 252.599 212.238C238.923 216.476 223.996 218.595 207.816 218.595C192.022 218.595 178.25 216.476 166.5 212.238C154.751 207.808 145.602 201.741 139.053 194.036C132.504 186.332 129.23 177.279 129.23 166.878C129.23 155.128 133.178 144.438 141.075 134.808C148.973 125.177 159.47 117.569 172.568 111.983C185.858 106.204 200.593 103.315 216.773 103.315ZM334.67 268.578C339.486 268.578 345.168 267.037 351.717 263.955C358.266 260.873 365.007 256.732 371.941 251.532C378.875 246.138 385.328 240.071 391.299 233.33L393.899 230.44H396.211L394.188 232.752C388.024 239.686 381.283 246.042 373.964 251.82C366.644 257.406 359.518 261.836 352.583 265.111C345.649 268.385 339.678 270.022 334.67 270.022C330.818 270.022 327.736 268.674 325.425 265.978C323.114 263.281 321.958 259.525 321.958 254.71C321.958 249.894 323.402 244.886 326.292 239.686C328.988 234.485 332.648 229.477 337.271 224.662C342.086 219.654 347.383 215.224 353.161 211.372C358.94 207.327 364.911 204.149 371.074 201.837C377.238 199.333 383.113 198.081 388.699 198.081C391.203 198.081 393.225 198.659 394.766 199.815C396.307 200.778 397.077 202.03 397.077 203.571C397.077 206.652 395.344 209.927 391.877 213.394C388.41 216.668 383.883 219.847 378.297 222.928C372.904 225.818 367.03 228.225 360.673 230.151C354.51 232.078 348.635 233.041 343.049 233.041L345.072 231.018C350.272 230.826 355.762 229.862 361.54 228.129C367.318 226.203 372.615 223.891 377.431 221.195C382.439 218.306 386.484 215.32 389.565 212.238C392.647 209.156 394.188 206.267 394.188 203.571C394.188 201.259 392.647 200.104 389.565 200.104C385.906 200.104 381.476 201.645 376.275 204.726C371.074 207.808 365.585 211.853 359.807 216.861C354.221 221.676 349.02 226.973 344.205 232.752C339.389 238.337 335.441 243.827 332.359 249.22C329.277 254.421 327.736 258.851 327.736 262.511C327.736 266.555 330.048 268.578 334.67 268.578ZM396.179 230.44H393.868L396.468 227.551C410.143 212.527 421.122 200.2 429.405 190.569C437.88 180.939 443.466 174.197 446.162 170.345H455.697C449.726 174.775 442.31 181.42 433.45 190.28C424.782 199.141 413.322 211.468 399.068 227.262L396.179 230.44ZM451.074 232.752C442.984 241.997 434.509 249.028 425.649 253.843C416.981 258.658 408.41 261.066 399.935 261.066C393.579 261.066 388.282 261.644 384.044 262.799C379.614 263.955 377.399 265.4 377.399 267.133C377.399 268.096 378.266 268.578 379.999 268.578C385.97 268.578 391.749 266.941 397.335 263.666C403.113 260.392 408.314 256.058 412.936 250.665C417.559 245.272 421.219 239.204 423.915 232.463C426.612 225.529 427.96 218.498 427.96 211.372C427.96 207.134 428.249 203.378 428.827 200.104C429.597 196.829 431.042 193.458 433.161 189.991C435.28 186.332 438.65 182.094 443.273 177.279L455.408 170.345C450.207 174.39 446.066 177.76 442.984 180.457C440.095 182.961 438.072 185.272 436.917 187.391C435.761 189.317 435.183 191.436 435.183 193.747C435.183 196.251 435.568 199.718 436.339 204.149C437.302 208.386 437.784 212.72 437.784 217.15C437.784 223.699 436.146 230.151 432.872 236.508C429.597 242.671 425.167 248.353 419.581 253.554C413.996 258.562 407.832 262.607 401.091 265.689C394.349 268.578 387.511 270.022 380.577 270.022C377.495 270.022 375.954 269.059 375.954 267.133C375.954 265.014 378.266 263.281 382.889 261.933C387.511 260.392 393.097 259.621 399.646 259.621C416.018 259.621 432.198 250.857 448.185 233.33L450.785 230.44H453.096L451.074 232.752ZM439.016 270.022C437.282 270.022 435.838 269.348 434.682 268C433.334 266.844 432.66 265.303 432.66 263.377C432.66 257.791 436.223 250.087 443.35 240.264C450.284 230.248 461.648 217.054 477.442 200.681H494.778C492.851 201.645 490.54 203.185 487.844 205.304C485.147 207.423 482.065 210.12 478.598 213.394C468.004 223.603 459.529 232.078 453.173 238.819C447.009 245.368 442.579 250.665 439.883 254.71C437.186 258.562 435.838 261.74 435.838 264.244C435.838 267.133 436.993 268.578 439.305 268.578C442.001 268.578 445.854 267.037 450.862 263.955C455.677 260.681 461.07 256.347 467.041 250.954C473.205 245.56 479.08 239.686 484.665 233.33L487.266 230.44H489.577L487.555 232.752C481.198 239.878 474.842 246.331 468.486 252.109C462.13 257.695 456.351 262.125 451.151 265.4C446.143 268.482 442.098 270.022 439.016 270.022ZM536.093 140.875C537.827 140.875 538.694 141.549 538.694 142.897C538.694 144.823 537.345 147.231 534.649 150.12C532.145 153.01 529.159 155.61 525.692 157.921C522.225 160.04 519.24 161.099 516.736 161.099C515.195 161.099 514.424 160.425 514.424 159.077C514.424 157.151 515.676 154.743 518.18 151.854C520.877 148.965 523.959 146.461 527.426 144.342C530.893 142.031 533.782 140.875 536.093 140.875ZM482.058 269.445C477.243 269.445 474.835 265.689 474.835 258.177C474.835 253.169 476.376 247.872 479.458 242.286C482.347 236.7 486.296 231.307 491.304 226.106C496.312 220.713 501.898 215.898 508.061 211.66C514.225 207.23 520.581 203.763 527.13 201.259C533.871 198.755 540.228 197.503 546.199 197.503C551.207 197.503 553.711 199.429 553.711 203.282C553.711 206.171 551.977 210.023 548.51 214.839C545.043 219.461 538.687 226.588 529.441 236.219C523.278 242.768 517.114 248.546 510.95 253.554C504.787 258.562 499.105 262.511 493.904 265.4C488.896 268.096 484.948 269.445 482.058 269.445ZM482.347 268C486.585 268 492.941 265.014 501.416 259.043C509.891 252.88 518.848 244.886 528.286 235.063C537.339 225.818 543.502 218.98 546.777 214.55C550.051 209.927 551.688 206.267 551.688 203.571C551.688 201.067 550.051 199.815 546.777 199.815C543.887 199.815 540.131 200.97 535.509 203.282C531.079 205.593 526.263 208.771 521.063 212.816C515.862 216.668 510.758 221.002 505.75 225.818C500.742 230.633 496.119 235.448 491.882 240.264C487.837 245.079 484.562 249.605 482.058 253.843C479.554 258.08 478.302 261.644 478.302 264.533C478.302 266.844 479.651 268 482.347 268ZM568.735 232.752C561.223 241.034 552.362 249.605 542.154 258.466C531.945 267.133 520.003 276.282 506.328 285.913C492.845 295.544 477.243 305.849 459.523 316.828C444.306 326.266 429.86 335.896 416.184 345.72C402.316 355.543 390.085 364.981 379.491 374.034C368.898 383.087 360.519 391.08 354.355 398.014C348.192 405.141 345.11 410.438 345.11 413.905C345.11 416.024 346.169 417.083 348.288 417.083C354.066 417.083 361.771 414.098 371.402 408.127C380.84 402.156 391.53 393.873 403.472 383.279C415.221 372.878 427.549 360.647 440.454 346.586C453.166 332.718 465.686 317.694 478.013 301.515C482.058 296.314 486.296 290.825 490.726 285.046C495.156 279.461 500.357 272.912 506.328 265.4C512.491 257.695 519.907 248.45 528.575 237.663L529.152 240.841H523.374L547.643 215.994L560.356 200.681H576.535C571.335 204.341 565.845 208.579 560.067 213.394C554.289 218.209 548.703 223.217 543.31 228.418C537.916 233.618 533.005 238.626 528.575 243.442C508.735 271.756 491.496 295.544 476.858 314.805C462.027 334.259 449.796 349.187 440.165 359.588C422.252 378.657 405.398 393.295 389.604 403.504C373.809 413.905 360.23 419.106 348.866 419.106C344.243 419.106 341.932 417.468 341.932 414.194C341.932 410.342 345.206 404.66 351.755 397.148C358.304 389.636 367.164 381.161 378.336 371.723C389.315 362.284 401.738 352.654 415.607 342.83C429.475 333.007 443.632 323.858 458.078 315.383C473.294 306.33 487.644 297.085 501.127 287.647C514.803 278.209 527.13 268.867 538.109 259.621C549.281 250.376 558.526 241.612 565.845 233.33L568.446 230.44H570.757L568.735 232.752ZM570.829 230.44H568.518L571.118 227.551C579.593 218.306 587.587 210.986 595.099 205.593C602.611 200.007 608.582 197.214 613.012 197.214C614.745 197.214 616.19 197.792 617.345 198.948C618.501 200.104 619.079 201.645 619.079 203.571C619.079 207.808 617.345 212.527 613.878 217.728C610.411 222.928 604.44 229.862 595.965 238.53H598.855L593.076 246.331L573.718 268H554.65C561.584 262.992 568.71 257.214 576.03 250.665C583.349 244.116 590.091 237.567 596.254 231.018C602.418 224.469 607.33 218.691 610.989 213.683C614.842 208.482 616.768 204.726 616.768 202.415C616.768 199.911 615.419 198.659 612.723 198.659C610.411 198.659 607.041 200.007 602.611 202.704C598.18 205.208 593.365 208.675 588.164 213.105C583.157 217.343 578.245 222.158 573.43 227.551L570.829 230.44ZM618.501 270.022C616.382 270.022 614.456 269.059 612.723 267.133C611.182 265.207 610.411 262.992 610.411 260.488C610.411 256.443 611.952 252.206 615.034 247.776C618.116 243.345 621.872 239.012 626.302 234.774C630.925 230.344 635.451 226.203 639.881 222.351C644.504 218.306 648.356 214.646 651.438 211.372C654.52 208.097 656.061 205.304 656.061 202.993C656.061 200.681 654.713 199.526 652.016 199.526C649.319 199.526 645.66 200.97 641.037 203.86C636.414 206.556 631.31 210.216 625.724 214.839C620.138 219.461 614.456 224.566 608.678 230.151C603.092 235.545 597.891 240.938 593.076 246.331H590.765C595.773 240.745 601.166 235.159 606.944 229.574C612.723 223.988 618.501 218.787 624.28 213.972C630.058 209.156 635.355 205.304 640.17 202.415C645.178 199.526 649.223 198.081 652.305 198.081C654.424 198.081 656.35 198.852 658.083 200.393C660.009 201.741 660.973 203.956 660.973 207.038C660.973 211.083 659.335 215.224 656.061 219.461C652.979 223.699 649.127 227.936 644.504 232.174C639.881 236.411 635.259 240.456 630.636 244.309C626.013 248.161 622.065 251.82 618.79 255.287C615.708 258.755 614.167 261.836 614.167 264.533C614.167 265.689 614.553 266.652 615.323 267.422C616.286 268.193 617.442 268.578 618.79 268.578C621.679 268.578 625.82 266.941 631.214 263.666C636.607 260.392 642.482 256.058 648.838 250.665C655.194 245.272 661.165 239.493 666.751 233.33L669.351 230.44H671.663L669.64 232.752C663.476 239.686 657.024 245.946 650.282 251.532C643.734 257.117 637.666 261.644 632.08 265.111C626.495 268.385 621.968 270.022 618.501 270.022Z" fill="#0E0E0E"></path>
	<path vector-effect="non-scaling-stroke" d="M255.199 111.694L254.937 112.119L255.199 111.694ZM259.533 153.01L259.159 152.677L259.533 153.01ZM232.085 170.634L232.264 171.101L232.27 171.098L232.085 170.634ZM130.674 166.589L130.462 167.041L130.674 166.589ZM94.8481 137.408L94.4352 137.69L94.8481 137.408ZM91.3811 61.9995L90.9399 61.7642L90.9369 61.77L91.3811 61.9995ZM160.144 8.83811L159.991 8.36215L159.989 8.36268L160.144 8.83811ZM273.112 9.41595L272.951 9.88921L272.953 9.88976L273.112 9.41595ZM317.606 33.6853L317.286 34.0699L317.289 34.0723L317.606 33.6853ZM347.076 70.6671L346.626 70.8859L346.63 70.8932L347.076 70.6671ZM345.631 176.123L345.172 175.926L345.631 176.123ZM311.25 226.395L310.899 226.04L311.25 226.395ZM258.955 261.066L258.76 260.605L258.955 261.066ZM159.566 270.022L159.436 270.505L159.438 270.506L159.566 270.022ZM134.719 261.355L134.923 260.898L134.719 261.355ZM113.628 252.687L113.449 253.154L113.454 253.156L113.628 252.687ZM78.0907 251.82L78.3359 252.256L78.3442 252.251L78.0907 251.82ZM152.632 262.222L152.82 262.685L152.824 262.683L152.632 262.222ZM201.46 231.307L201.133 230.928L201.131 230.931L201.46 231.307ZM234.108 200.681L234.465 201.032L234.468 201.029L234.108 200.681ZM265.311 167.456L265.68 167.793L265.311 167.456ZM295.359 134.519L294.993 134.178L294.989 134.182L295.359 134.519ZM325.118 104.182L325.464 104.543L325.472 104.535L325.118 104.182ZM345.92 85.691L346.224 86.0882L345.92 85.691ZM364.7 73.2674V72.7674H364.572L364.46 72.829L364.7 73.2674ZM379.435 73.2674L379.556 73.7525L379.435 72.7674V73.2674ZM353.721 84.8243L353.976 85.2546L353.982 85.2507L353.721 84.8243ZM326.852 105.915L327.205 106.269L326.852 105.915ZM299.115 139.141L298.706 138.854L299.115 139.141ZM273.401 177.279L273.821 177.551L273.401 177.279ZM246.82 215.128L246.423 214.824L246.82 215.128ZM216.195 248.064L216.521 248.443L216.525 248.44L216.195 248.064ZM178.635 271.178L178.443 270.717L178.635 271.178ZM93.1146 276.668L93.2359 276.182L93.2254 276.18L93.1146 276.668ZM76.0683 269.156L76.4331 268.814L76.0683 269.156ZM75.4905 250.954L75.1369 250.6L75.1304 250.607L75.1241 250.613L75.4905 250.954ZM112.761 250.665L112.595 251.137L112.599 251.138L112.761 250.665ZM135.297 259.621L135.092 260.077L135.099 260.08L135.106 260.083L135.297 259.621ZM161.3 268.289L161.428 267.806L161.3 268.289ZM256.644 260.199L256.83 260.663L256.833 260.662L256.644 260.199ZM308.649 226.684L308.303 226.324L308.649 226.684ZM343.32 177.279L342.864 177.074L342.863 177.076L343.32 177.279ZM345.631 71.245L345.182 71.4636L345.184 71.4686L345.631 71.245ZM316.739 35.1299L316.42 35.5145L316.423 35.5174L316.739 35.1299ZM272.534 11.1495L272.373 11.6227L272.378 11.6243L272.534 11.1495ZM164.189 9.70486L164.046 9.22564L164.045 9.22611L164.189 9.70486ZM122.007 29.9293L122.296 30.3371L122.297 30.3362L122.007 29.9293ZM93.9814 59.9771L93.5495 59.7251L93.5464 59.7306L93.9814 59.9771ZM97.1595 137.986L96.7571 138.283L96.7603 138.287L97.1595 137.986ZM133.564 165.722L133.363 166.18L133.365 166.181L133.564 165.722ZM226.885 170.056L226.734 169.579L226.731 169.58L226.885 170.056ZM255.777 154.454L255.444 154.081L255.439 154.086L255.777 154.454ZM253.177 112.85L252.928 113.283L252.935 113.287L253.177 112.85ZM173.435 113.427L173.238 112.967L173.236 112.969L173.435 113.427ZM142.52 135.963L142.904 136.283L142.907 136.279L142.52 135.963ZM140.498 193.17L140.879 192.847L140.498 193.17ZM167.367 210.794L167.195 211.263L167.202 211.266L167.367 210.794ZM251.732 210.505L251.582 210.028L251.732 210.505ZM286.692 192.881L286.391 192.481L286.388 192.483L286.692 192.881ZM310.094 166.3L310.533 166.54L310.094 166.3ZM304.027 93.7808L303.648 94.1073L303.651 94.1105L304.027 93.7808ZM263.578 67.7779L263.745 67.3068L263.578 67.7779ZM138.764 66.9112L138.631 66.4292L138.63 66.4295L138.764 66.9112ZM83.5802 90.6027L83.3201 90.1757L83.3179 90.177L83.5802 90.6027ZM40.531 126.718L40.9073 127.047L40.531 126.718ZM12.5057 172.945L12.9696 173.132L12.9721 173.125L12.5057 172.945ZM14.5282 282.157L14.9804 281.944L14.9794 281.942L14.5282 282.157ZM48.6208 326.362L48.9458 325.982L48.9429 325.98L48.6208 326.362ZM100.915 355.254L100.757 355.728L100.915 355.254ZM218.506 359.877L218.403 359.388L218.397 359.389L218.506 359.877ZM264.445 344.853L264.236 344.399L264.445 344.853ZM302.004 321.161L301.686 320.776L301.679 320.782L302.004 321.161ZM328.296 290.825L328.553 290.396L328.12 290.136L327.865 290.572L328.296 290.825ZM329.741 291.691L330.172 291.944L330.422 291.517L329.998 291.263L329.741 291.691ZM303.449 322.317L303.771 322.7L303.449 322.317ZM265.311 346.298L265.1 345.844L265.098 345.846L265.311 346.298ZM219.084 361.61L218.982 361.121L218.976 361.122L219.084 361.61ZM100.338 356.699L100.498 356.225L100.494 356.224L100.338 356.699ZM47.4651 327.518L47.7905 327.138L47.7877 327.136L47.4651 327.518ZM13.0836 283.024L13.5358 282.81L13.5338 282.806L13.0836 283.024ZM10.7722 172.367L11.2368 172.552L11.2375 172.55L10.7722 172.367ZM39.0864 125.562L38.7105 125.232L38.7079 125.235L39.0864 125.562ZM82.7135 89.1581L82.9736 89.5851L82.9772 89.5829L82.7135 89.1581ZM138.186 65.1777L138.054 64.6954L138.053 64.6957L138.186 65.1777ZM264.445 66.3333L264.274 66.8034L264.28 66.8056L264.445 66.3333ZM305.471 92.6251L305.09 92.9484L305.093 92.9521L305.471 92.6251ZM311.828 166.878L311.387 166.641L311.828 166.878ZM288.136 194.036L287.835 193.637L287.831 193.64L288.136 194.036ZM252.599 212.238L252.747 212.716L252.753 212.714L252.599 212.238ZM166.5 212.238L166.324 212.706L166.331 212.709L166.5 212.238ZM139.053 194.036L138.672 194.36L139.053 194.036ZM141.075 134.808L140.689 134.491L141.075 134.808ZM172.568 111.983L172.764 112.443L172.767 112.441L172.568 111.983ZM216.773 103.815C233.292 103.815 245.995 106.602 254.937 112.119L255.462 111.268C246.298 105.614 233.383 102.815 216.773 102.815V103.815ZM254.937 112.119C263.881 117.638 268.278 124.621 268.278 133.074H269.278C269.278 124.192 264.623 116.921 255.462 111.268L254.937 112.119ZM268.278 133.074C268.278 139.262 265.278 145.794 259.159 152.677L259.907 153.342C266.115 146.357 269.278 139.599 269.278 133.074H268.278ZM259.159 152.677C253.064 159.534 243.991 165.371 231.901 170.169L232.27 171.098C244.449 166.265 253.674 160.353 259.907 153.342L259.159 152.677ZM231.907 170.166C219.847 174.761 204.792 177.068 186.725 177.068V178.068C204.869 178.068 220.054 175.752 232.263 171.101L231.907 170.166ZM186.725 177.068C165.014 177.068 146.407 173.417 130.887 166.136L130.462 167.041C146.145 174.399 164.905 178.068 186.725 178.068V177.068ZM130.887 166.136C115.352 158.848 103.485 149.175 95.2611 137.126L94.4352 137.69C102.776 149.91 114.793 159.691 130.462 167.041L130.887 166.136ZM95.2611 137.126C87.0344 125.073 82.9246 111.88 82.9246 97.5368H81.9246C81.9246 112.085 86.0971 125.473 94.4352 137.69L95.2611 137.126ZM82.9246 97.5368C82.9246 85.4876 85.8882 73.7201 91.8253 62.229L90.9369 61.77C84.9319 73.3925 81.9246 85.3165 81.9246 97.5368H82.9246ZM91.8223 62.2348C97.9501 50.7452 106.763 40.3951 118.274 31.1865L117.649 30.4056C106.046 39.688 97.1394 50.1402 90.9399 61.7642L91.8223 62.2348ZM118.274 31.1865C129.776 21.9846 143.782 14.6913 160.299 9.31355L159.989 8.36268C143.377 13.7713 129.261 21.1166 117.649 30.4056L118.274 31.1865ZM160.297 9.31407C176.996 3.9398 196.012 1.24832 217.351 1.24832V0.248318C195.929 0.248318 176.807 2.95004 159.991 8.36216L160.297 9.31407ZM217.351 1.24832C237.527 1.24832 256.059 4.13062 272.951 9.88921L273.274 8.9427C256.265 3.14444 237.623 0.248318 217.351 0.248318V1.24832ZM272.953 9.88976C290.043 15.6507 304.819 23.7122 317.286 34.0699L317.926 33.3007C305.353 22.8561 290.466 14.738 273.272 8.94214L272.953 9.88976ZM317.289 34.0723C329.948 44.4293 339.725 56.6999 346.626 70.8859L347.526 70.4484C340.559 56.1276 330.689 43.7436 317.923 33.2983L317.289 34.0723ZM346.63 70.8932C353.719 84.8804 357.266 100.115 357.266 116.606H358.266C358.266 99.9663 354.686 84.5755 347.522 70.4411L346.63 70.8932ZM357.266 116.606C357.266 137.341 353.235 157.113 345.172 175.926L346.091 176.32C354.208 157.381 358.266 137.475 358.266 116.606H357.266ZM345.172 175.926C337.108 194.742 325.684 211.446 310.899 226.04L311.601 226.751C326.478 212.068 337.975 195.257 346.091 176.32L345.172 175.926ZM310.899 226.04C296.114 240.632 278.736 252.154 258.76 260.605L259.15 261.526C279.237 253.028 296.723 241.436 311.601 226.751L310.899 226.04ZM258.76 260.605C238.795 269.052 217.001 273.278 193.37 273.278V274.278C217.123 274.278 239.051 270.03 259.15 261.526L258.76 260.605ZM193.37 273.278C180.302 273.278 169.079 272.029 159.695 269.539L159.438 270.506C168.93 273.024 180.243 274.278 193.37 274.278V273.278ZM159.697 269.54C150.472 267.041 142.215 264.16 134.923 260.898L134.515 261.811C141.862 265.098 150.17 267.996 159.436 270.505L159.697 269.54ZM134.923 260.898C127.595 257.62 120.555 254.727 113.802 252.218L113.454 253.156C120.184 255.656 127.204 258.541 134.515 261.811L134.923 260.898ZM113.807 252.22C107.194 249.692 99.9095 248.431 91.9589 248.431V249.431C99.8027 249.431 106.964 250.675 113.449 253.154L113.807 252.22ZM91.9589 248.431C85.9452 248.431 81.2205 249.399 77.8372 251.389L78.3442 252.251C81.5099 250.389 86.0307 249.431 91.9589 249.431V248.431ZM77.8456 251.385C74.6217 253.198 72.968 255.86 72.968 259.332H73.968C73.968 256.256 75.3961 253.91 78.3359 252.256L77.8456 251.385ZM72.968 259.332C72.968 261.649 73.625 263.694 74.9467 265.448C76.2637 267.195 78.2196 268.626 80.7777 269.757C85.8822 272.015 93.4785 273.123 103.516 273.123V272.123C93.5212 272.123 86.0936 271.015 81.1822 268.843C78.7323 267.759 76.9323 266.421 75.7453 264.846C74.563 263.277 73.968 261.446 73.968 259.332H72.968ZM103.516 273.123C119.192 273.123 135.628 269.639 152.82 262.685L152.445 261.758C135.351 268.672 119.042 272.123 103.516 272.123V273.123ZM152.824 262.683C170.022 255.534 186.343 245.198 201.789 231.683L201.131 230.931C185.758 244.382 169.528 254.656 152.44 261.76L152.824 262.683ZM201.786 231.686C212.969 222.046 223.861 211.828 234.465 201.032L233.751 200.331C223.167 211.108 212.294 221.307 201.133 230.928L201.786 231.686ZM234.468 201.029C245.065 190.046 255.469 178.968 265.68 167.793L264.942 167.118C254.737 178.287 244.339 189.359 233.748 200.334L234.468 201.029ZM265.68 167.793C275.889 156.621 285.905 145.642 295.729 134.855L294.989 134.182C285.166 144.968 275.151 155.947 264.942 167.118L265.68 167.793ZM295.726 134.859C305.736 124.079 315.648 113.973 325.464 104.542L324.772 103.821C314.941 113.267 305.015 123.386 294.993 134.178L295.726 134.859ZM325.472 104.535C332.779 97.228 339.696 91.0798 346.224 86.0882L345.617 85.2938C339.046 90.3181 332.096 96.4972 324.764 103.828L325.472 104.535ZM346.224 86.0882C352.757 81.0925 358.996 76.9659 364.941 73.7058L364.46 72.829C358.462 76.1178 352.181 80.2736 345.617 85.2938L346.224 86.0882ZM364.7 73.7674H379.435V72.7674H364.7V73.7674ZM379.314 72.7824C371.545 74.7246 362.926 78.6025 353.46 84.3978L353.982 85.2507C363.393 79.4892 371.916 75.6625 379.556 73.7525L379.314 72.7824ZM353.466 84.394C343.989 90.003 335 97.06 326.498 105.562L327.205 106.269C335.653 97.8209 344.577 90.8171 353.976 85.2545L353.466 84.394ZM326.498 105.562C316.653 115.407 307.389 126.505 298.706 138.854L299.524 139.429C308.177 127.123 317.404 116.07 327.205 106.269L326.498 105.562ZM298.706 138.854C290.035 151.186 281.46 163.904 272.981 177.007L273.821 177.551C282.293 164.458 290.86 151.751 299.524 139.429L298.706 138.854ZM272.981 177.007C264.513 190.094 255.66 202.7 246.423 214.824L247.218 215.431C256.472 203.285 265.339 190.659 273.821 177.551L272.981 177.007ZM246.423 214.824C237.197 226.934 227.011 237.888 215.865 247.689L216.525 248.44C227.722 238.594 237.953 227.591 247.218 215.431L246.423 214.824ZM215.868 247.686C204.738 257.281 192.263 264.958 178.443 270.717L178.827 271.64C192.744 265.841 205.309 258.109 216.521 248.443L215.868 247.686ZM178.443 270.717C164.645 276.465 148.918 279.346 131.252 279.346V280.346C149.027 280.346 164.888 277.448 178.827 271.64L178.443 270.717ZM131.252 279.346C114.312 279.346 101.65 278.286 93.2359 276.183L92.9934 277.153C101.53 279.287 114.292 280.346 131.252 280.346V279.346ZM93.2254 276.18C84.7638 274.257 79.2125 271.778 76.4331 268.814L75.7035 269.498C78.7025 272.697 84.5154 275.226 93.0038 277.155L93.2254 276.18ZM76.4331 268.814C73.5981 265.79 72.2345 262.824 72.2345 259.91H71.2345C71.2345 263.16 72.7601 266.358 75.7035 269.498L76.4331 268.814ZM72.2345 259.91C72.2345 256.778 73.4273 253.91 75.8568 251.294L75.1241 250.613C72.5457 253.39 71.2345 256.494 71.2345 259.91H72.2345ZM75.844 251.307C78.3896 248.762 83.3115 247.409 90.8033 247.409V246.409C83.2711 246.409 77.9845 247.752 75.1369 250.6L75.844 251.307ZM90.8033 247.409C98.2584 247.409 105.522 248.651 112.595 251.136L112.927 250.193C105.747 247.67 98.372 246.409 90.8033 246.409V247.409ZM112.599 251.138C119.903 253.636 127.4 256.616 135.092 260.077L135.502 259.165C127.785 255.692 120.258 252.701 112.923 250.192L112.599 251.138ZM135.106 260.083C143.026 263.367 151.715 266.263 161.172 268.772L161.428 267.806C152.009 265.307 143.362 262.424 135.489 259.159L135.106 260.083ZM161.172 268.772C170.66 271.289 181.394 272.545 193.37 272.545V271.545C181.462 271.545 170.816 270.296 161.428 267.806L161.172 268.772ZM193.37 272.545C215.966 272.545 237.121 268.586 256.83 260.663L256.457 259.735C236.874 267.607 215.846 271.545 193.37 271.545V272.545ZM256.833 260.662C276.728 252.549 294.117 241.344 308.996 227.045L308.303 226.324C293.519 240.532 276.238 251.669 256.455 259.736L256.833 260.662ZM308.996 227.045C323.874 212.747 335.468 196.225 343.777 177.482L342.863 177.076C334.607 195.7 323.088 212.115 308.303 226.324L308.996 227.045ZM343.776 177.484C352.281 158.54 356.532 138.246 356.532 116.606H355.532C355.532 138.111 351.309 158.265 342.864 177.074L343.776 177.484ZM356.532 116.606C356.532 100.16 353.049 84.9629 346.079 71.0214L345.184 71.4686C352.082 85.2635 355.532 100.307 355.532 116.606H356.532ZM346.081 71.0264C339.306 57.0897 329.629 44.9946 317.055 34.7424L316.423 35.5174C328.89 45.6823 338.473 57.6638 345.182 71.4636L346.081 71.0264ZM317.059 34.7453C304.486 24.3004 289.695 16.2781 272.691 10.6746L272.378 11.6243C289.274 17.1924 303.953 25.1571 316.42 35.5145L317.059 34.7453ZM272.696 10.6762C255.688 4.87796 237.045 1.98185 216.773 1.98185V2.98185C236.949 2.98185 255.481 5.86415 272.373 11.6227L272.696 10.6762ZM216.773 1.98185C197.854 1.98185 180.277 4.395 164.046 9.22564L164.332 10.1841C180.46 5.38405 197.939 2.98185 216.773 2.98185V1.98185ZM164.045 9.22611C148.012 14.0554 133.9 20.8195 121.716 29.5224L122.297 30.3362C134.382 21.7039 148.393 14.9851 164.333 10.1836L164.045 9.22611ZM121.717 29.5216C109.723 38.0338 100.33 48.1012 93.5495 59.7251L94.4133 60.229C101.116 48.7393 110.407 38.7748 122.296 30.3371L121.717 29.5216ZM93.5464 59.7306C86.9542 71.3638 83.6581 83.9688 83.6581 97.5368H84.6581C84.6581 84.1388 87.9108 71.7041 94.4164 60.2236L93.5464 59.7306ZM83.6581 97.5368C83.6581 112.855 88.0233 126.443 96.7571 138.283L97.5619 137.689C88.9605 126.029 84.6581 112.651 84.6581 97.5368H83.6581ZM96.7603 138.287C105.679 150.114 117.887 159.409 133.363 166.18L133.764 165.264C118.422 158.552 106.36 149.356 97.5587 137.685L96.7603 138.287ZM133.365 166.181C149.04 172.954 166.926 176.334 187.014 176.334V175.334C167.038 175.334 149.291 171.973 133.762 165.263L133.365 166.181ZM187.014 176.334C201.696 176.334 215.039 174.402 227.038 170.532L226.731 169.58C214.846 173.414 201.609 175.334 187.014 175.334V176.334ZM227.036 170.532C239.219 166.665 248.921 161.434 256.115 154.822L255.439 154.086C248.38 160.573 238.82 165.742 226.734 169.579L227.036 170.532ZM256.11 154.827C263.505 148.211 267.256 140.958 267.256 133.074H266.256C266.256 140.599 262.688 147.6 255.444 154.082L256.11 154.827ZM267.256 133.074C267.256 124.374 262.589 117.485 253.419 112.412L252.935 113.287C261.87 118.23 266.256 124.824 266.256 133.074H267.256ZM253.426 112.416C244.27 107.156 232.039 104.549 216.773 104.549V105.549C231.939 105.549 243.977 108.142 252.928 113.283L253.426 112.416ZM216.773 104.549C200.918 104.549 186.405 107.352 173.238 112.967L173.631 113.887C186.66 108.331 201.038 105.549 216.773 105.549V104.549ZM173.236 112.969C160.269 118.581 149.895 126.138 142.133 135.647L142.907 136.279C150.554 126.912 160.79 119.445 173.633 113.886L173.236 112.969ZM142.136 135.643C134.361 144.973 130.463 155.389 130.463 166.878H131.463C131.463 155.638 135.27 145.445 142.904 136.283L142.136 135.643ZM130.463 166.878C130.463 177.01 133.682 185.889 140.116 193.493L140.879 192.847C134.601 185.427 131.463 176.778 131.463 166.878H130.463ZM140.116 193.493C146.541 201.085 155.577 207.003 167.195 211.263L167.539 210.324C156.044 206.109 147.167 200.278 140.879 192.847L140.116 193.493ZM167.202 211.266C178.824 215.333 192.365 217.361 207.816 217.361V216.361C192.449 216.361 179.024 214.344 167.532 210.322L167.202 211.266ZM207.816 217.361C223.655 217.361 238.345 215.236 251.882 210.982L251.582 210.028C238.153 214.248 223.566 216.361 207.816 216.361V217.361ZM251.882 210.982C265.413 206.729 277.12 200.83 286.995 193.278L286.388 192.483C276.617 199.955 265.017 205.805 251.582 210.028L251.882 210.982ZM286.992 193.281C297.06 185.729 304.91 176.816 310.533 166.54L309.655 166.06C304.106 176.201 296.355 185.008 286.392 192.481L286.992 193.281ZM310.533 166.54C316.161 156.255 318.973 145 318.973 132.785H317.973C317.973 144.84 315.199 155.928 309.655 166.06L310.533 166.54ZM318.973 132.785C318.973 117.644 314.116 104.524 304.403 93.4511L303.651 94.1105C313.199 104.995 317.973 117.879 317.973 132.785H318.973ZM304.405 93.4543C294.706 82.2026 281.142 73.4924 263.745 67.3068L263.41 68.249C280.684 74.3907 294.086 83.0158 303.648 94.1073L304.405 93.4543ZM263.745 67.3068C246.344 61.1197 225.964 58.0325 202.616 58.0325V59.0325C225.879 59.0325 246.141 62.1089 263.41 68.249L263.745 67.3068ZM202.616 58.0325C180.23 58.0325 158.902 60.8307 138.631 66.4292L138.897 67.3931C159.076 61.8201 180.314 59.0325 202.616 59.0325V58.0325ZM138.63 66.4295C118.556 72.0269 100.119 79.9418 83.3201 90.1757L83.8404 91.0297C100.556 80.8464 118.908 72.967 138.898 67.3928L138.63 66.4295ZM83.3179 90.177C66.7129 100.41 52.3242 112.481 40.1548 126.389L40.9073 127.047C53.0073 113.219 67.318 101.212 83.8426 91.0283L83.3179 90.177ZM40.1548 126.389C27.9821 140.3 18.6096 155.76 12.0393 172.765L12.9721 173.125C19.4996 156.231 28.8106 140.872 40.9073 127.047L40.1548 126.389ZM12.0419 172.758C5.27569 189.577 1.89351 207.361 1.89351 226.107H2.89351C2.89351 207.485 6.25281 189.828 12.9696 173.132L12.0419 172.758ZM1.89351 226.107C1.89351 246.591 5.95234 265.349 14.0769 282.372L14.9794 281.942C6.92446 265.065 2.89351 246.456 2.89351 226.107H1.89351ZM14.076 282.371C22.1968 299.579 33.6056 314.371 48.2988 326.744L48.9429 325.98C34.3587 313.698 23.0391 299.021 14.9804 281.944L14.076 282.371ZM48.2958 326.742C62.9885 339.308 80.4783 348.969 100.757 355.728L101.074 354.78C80.9038 348.056 63.5305 338.456 48.9458 325.982L48.2958 326.742ZM100.757 355.728C121.039 362.489 143.34 365.866 167.656 365.866V364.866C143.433 364.866 121.241 361.502 101.074 354.78L100.757 355.728ZM167.656 365.866C185.219 365.866 202.206 364.033 218.615 360.365L218.397 359.389C202.062 363.04 185.149 364.866 167.656 364.866V365.866ZM218.61 360.366C235.016 356.892 250.364 351.873 264.653 345.307L264.236 344.399C250.018 350.931 234.741 355.928 218.403 359.388L218.61 360.366ZM264.653 345.307C278.945 338.741 291.505 330.82 302.33 321.541L301.679 320.782C290.931 329.994 278.451 337.867 264.236 344.399L264.653 345.307ZM302.322 321.547C313.342 312.461 322.146 302.305 328.727 291.078L327.865 290.572C321.348 301.688 312.624 311.756 301.686 320.776L302.322 321.547ZM328.039 291.253L329.483 292.12L329.998 291.263L328.553 290.396L328.039 291.253ZM329.309 291.439C322.792 302.556 314.067 312.722 303.127 321.935L303.771 322.7C314.789 313.421 323.591 303.17 330.172 291.944L329.309 291.439ZM303.127 321.935C292.185 331.149 279.51 339.12 265.1 345.844L265.523 346.751C280.004 339.993 292.755 331.976 303.771 322.7L303.127 321.935ZM265.098 345.846C250.882 352.569 235.511 357.661 218.982 361.121L219.186 362.1C235.787 358.625 251.234 353.509 265.525 346.75L265.098 345.846ZM218.976 361.122C202.448 364.774 185.342 366.6 167.656 366.6V367.6C185.411 367.6 202.59 365.766 219.192 362.099L218.976 361.122ZM167.656 366.6C143.242 366.6 120.857 363.14 100.498 356.225L100.177 357.172C120.652 364.126 143.147 367.6 167.656 367.6V366.6ZM100.494 356.224C80.133 349.501 62.5676 339.804 47.7905 327.138L47.1397 327.897C62.0252 340.656 79.7082 350.414 100.181 357.173L100.494 356.224ZM47.7877 327.136C33.0099 314.661 21.5942 299.887 13.5358 282.81L12.6314 283.237C20.7525 300.446 32.2579 315.335 47.1426 327.9L47.7877 327.136ZM13.5338 282.806C5.28711 265.738 1.15998 246.841 1.15998 226.107H0.159985C0.159985 246.977 4.31525 266.025 12.6334 283.241L13.5338 282.806ZM1.15998 226.107C1.15998 207.291 4.51953 189.441 11.2368 172.552L10.3076 172.182C3.54192 189.193 0.159985 207.169 0.159985 226.107H1.15998ZM11.2375 172.55C17.9582 155.46 27.3668 139.907 39.465 125.889L38.7079 125.235C26.5367 139.339 17.0692 154.989 10.3069 172.184L11.2375 172.55ZM39.4624 125.892C51.7546 111.871 66.2574 99.7685 82.9736 89.5851L82.4533 88.7311C65.6548 98.9647 51.0728 111.132 38.7105 125.232L39.4624 125.892ZM82.9772 89.5829C99.6915 79.2085 118.138 71.2335 138.319 65.6596L138.053 64.6957C117.786 70.2934 99.2503 78.3054 82.4498 88.7332L82.9772 89.5829ZM138.318 65.6599C158.69 60.0866 180.121 57.299 202.616 57.299V56.299C180.038 56.299 158.517 59.0971 138.054 64.6954L138.318 65.6599ZM202.616 57.299C226.264 57.299 246.813 60.4715 264.274 66.8034L264.615 65.8633C247.02 59.4827 226.35 56.299 202.616 56.299V57.299ZM264.28 66.8056C281.938 72.9474 295.53 81.6679 305.09 92.9484L305.853 92.3018C296.151 80.8539 282.392 72.0466 264.609 65.8611L264.28 66.8056ZM305.093 92.9521C314.836 104.223 319.706 117.493 319.706 132.785H320.706C320.706 117.259 315.754 103.756 305.85 92.2981L305.093 92.9521ZM319.706 132.785C319.706 145.034 316.932 156.316 311.387 166.641L312.268 167.114C317.895 156.637 320.706 145.191 320.706 132.785H319.706ZM311.387 166.641C305.838 176.974 297.991 185.972 287.835 193.637L288.437 194.435C298.699 186.691 306.645 177.584 312.268 167.114L311.387 166.641ZM287.831 193.64C277.866 201.305 266.073 207.348 252.445 211.763L252.753 212.714C266.476 208.269 278.374 202.176 288.441 194.433L287.831 193.64ZM252.451 211.761C238.829 215.982 223.952 218.095 207.816 218.095V219.095C224.039 219.095 239.018 216.97 252.747 212.716L252.451 211.761ZM207.816 218.095C192.065 218.095 178.353 215.981 166.67 211.768L166.331 212.709C178.147 216.97 191.979 219.095 207.816 219.095V218.095ZM166.677 211.77C154.988 207.363 145.916 201.339 139.434 193.712L138.672 194.36C145.288 202.143 154.514 208.253 166.324 212.706L166.677 211.77ZM139.434 193.712C132.964 186.101 129.73 177.164 129.73 166.878H128.73C128.73 177.394 132.044 186.562 138.672 194.36L139.434 193.712ZM129.73 166.878C129.73 155.251 133.633 144.672 141.462 135.125L140.689 134.491C132.723 144.205 128.73 155.005 128.73 166.878H129.73ZM141.462 135.125C149.301 125.565 159.73 118.001 172.764 112.443L172.372 111.523C159.211 117.136 148.644 124.789 140.689 134.491L141.462 135.125ZM172.767 112.441C185.988 106.693 200.654 103.815 216.773 103.815V102.815C200.533 102.815 185.729 105.715 172.368 111.524L172.767 112.441ZM351.717 263.955L351.93 264.408L351.717 263.955ZM371.941 251.532L372.241 251.932L372.248 251.926L371.941 251.532ZM391.299 233.329L390.927 232.995L390.925 232.998L391.299 233.329ZM393.899 230.44V229.94H393.676L393.527 230.106L393.899 230.44ZM396.211 230.44L396.587 230.77L397.312 229.94H396.211V230.44ZM394.188 232.752L394.562 233.084L394.564 233.081L394.188 232.752ZM373.964 251.82L374.267 252.218L374.273 252.213L373.964 251.82ZM352.583 265.111L352.37 264.659L352.583 265.111ZM325.425 265.978L325.805 265.652L325.425 265.978ZM326.292 239.686L326.729 239.929L326.732 239.922L326.736 239.916L326.292 239.686ZM337.271 224.662L336.91 224.315L336.91 224.316L337.271 224.662ZM353.161 211.372L353.439 211.788L353.448 211.781L353.161 211.372ZM371.074 201.837L371.25 202.305L371.263 202.3L371.074 201.837ZM394.766 199.815L394.466 200.215L394.483 200.227L394.501 200.239L394.766 199.815ZM391.877 213.394L392.22 213.757L392.225 213.753L392.23 213.748L391.877 213.394ZM378.297 222.928L378.534 223.369L378.539 223.366L378.297 222.928ZM360.673 230.151L360.528 229.673L360.524 229.674L360.673 230.151ZM343.049 233.041L342.696 232.687L341.842 233.541H343.049V233.041ZM345.072 231.018L345.053 230.518L344.857 230.526L344.718 230.665L345.072 231.018ZM361.54 228.129L361.684 228.608L361.691 228.606L361.698 228.603L361.54 228.129ZM377.431 221.195L377.675 221.631L377.681 221.628L377.431 221.195ZM376.275 204.726L376.53 205.156L376.275 204.726ZM359.807 216.861L360.133 217.24L360.134 217.239L359.807 216.861ZM344.205 232.752L344.584 233.078L344.589 233.072L344.205 232.752ZM332.359 249.22L332.789 249.475L332.793 249.468L332.359 249.22ZM334.67 269.078C339.587 269.078 345.345 267.506 351.93 264.408L351.504 263.503C344.991 266.568 339.385 268.078 334.67 268.078V269.078ZM351.93 264.408C358.515 261.309 365.285 257.149 372.241 251.932L371.641 251.132C364.729 256.316 358.017 260.438 351.504 263.503L351.93 264.408ZM372.248 251.926C379.207 246.514 385.682 240.425 391.673 233.661L390.925 232.998C384.973 239.717 378.543 245.763 371.634 251.137L372.248 251.926ZM391.671 233.664L394.271 230.775L393.527 230.106L390.927 232.995L391.671 233.664ZM393.899 230.94H396.211V229.94H393.899V230.94ZM395.834 230.111L393.812 232.422L394.564 233.081L396.587 230.77L395.834 230.111ZM393.814 232.419C387.67 239.332 380.95 245.668 373.654 251.428L374.273 252.213C381.616 246.416 388.379 240.04 394.562 233.084L393.814 232.419ZM373.66 251.423C366.364 256.992 359.267 261.402 352.37 264.659L352.797 265.563C359.768 262.271 366.925 257.821 374.267 252.218L373.66 251.423ZM352.37 264.659C345.471 267.917 339.576 269.522 334.67 269.522V270.522C339.781 270.522 345.828 268.854 352.797 265.563L352.37 264.659ZM334.67 269.522C330.95 269.522 328.012 268.228 325.805 265.652L325.045 266.303C327.46 269.121 330.686 270.522 334.67 270.522V269.522ZM325.805 265.652C323.595 263.074 322.458 259.448 322.458 254.71H321.458C321.458 259.602 322.632 263.488 325.045 266.303L325.805 265.652ZM322.458 254.71C322.458 249.997 323.871 245.072 326.729 239.929L325.855 239.443C322.934 244.701 321.458 249.792 321.458 254.71H322.458ZM326.736 239.916C329.407 234.763 333.037 229.794 337.631 225.008L336.91 224.316C332.259 229.161 328.569 234.207 325.848 239.456L326.736 239.916ZM337.631 225.008C342.421 220.027 347.69 215.62 353.439 211.788L352.884 210.956C347.075 214.828 341.751 219.281 336.91 224.315L337.631 225.008ZM353.448 211.781C359.194 207.759 365.128 204.601 371.25 202.305L370.899 201.369C364.693 203.696 358.685 206.895 352.875 210.962L353.448 211.781ZM371.263 202.3C377.378 199.816 383.188 198.581 388.699 198.581V197.581C383.037 197.581 377.098 198.85 370.886 201.374L371.263 202.3ZM388.699 198.581C391.127 198.581 393.034 199.141 394.466 200.215L395.066 199.415C393.416 198.177 391.278 197.581 388.699 197.581V198.581ZM394.501 200.239C395.926 201.13 396.577 202.235 396.577 203.571H397.577C397.577 201.824 396.687 200.426 395.031 199.391L394.501 200.239ZM396.577 203.571C396.577 206.46 394.95 209.614 391.523 213.04L392.23 213.748C395.738 210.24 397.577 206.845 397.577 203.571H396.577ZM391.533 213.03C388.105 216.268 383.616 219.423 378.056 222.491L378.539 223.366C384.15 220.27 388.714 217.069 392.22 213.757L391.533 213.03ZM378.061 222.488C372.7 225.36 366.856 227.755 360.528 229.673L360.818 230.63C367.203 228.695 373.109 226.275 378.534 223.369L378.061 222.488ZM360.524 229.674C354.401 231.587 348.577 232.541 343.049 232.541V233.541C348.693 233.541 354.618 232.568 360.822 230.629L360.524 229.674ZM343.403 233.394L345.425 231.372L344.718 230.665L342.696 232.687L343.403 233.394ZM345.09 231.518C350.339 231.323 355.871 230.352 361.684 228.608L361.396 227.65C355.652 229.373 350.205 230.328 345.053 230.518L345.09 231.518ZM361.698 228.603C367.503 226.668 372.829 224.345 377.675 221.631L377.186 220.759C372.401 223.438 367.134 225.737 361.382 227.655L361.698 228.603ZM377.681 221.628C382.715 218.724 386.798 215.713 389.919 212.592L389.212 211.885C386.169 214.927 382.162 217.888 377.181 220.762L377.681 221.628ZM389.919 212.592C393.039 209.472 394.688 206.462 394.688 203.571H393.688C393.688 206.073 392.255 208.841 389.212 211.885L389.919 212.592ZM394.688 203.571C394.688 202.293 394.255 201.262 393.332 200.57C392.437 199.899 391.154 199.604 389.565 199.604V200.604C391.058 200.604 392.087 200.886 392.732 201.37C393.351 201.834 393.688 202.537 393.688 203.571H394.688ZM389.565 199.604C385.775 199.604 381.253 201.195 376.02 204.296L376.53 205.156C381.698 202.094 386.036 200.604 389.565 200.604V199.604ZM376.02 204.296C370.788 207.397 365.274 211.461 359.479 216.483L360.134 217.239C365.895 212.246 371.361 208.22 376.53 205.156L376.02 204.296ZM359.48 216.482C353.873 221.316 348.653 226.633 343.821 232.432L344.589 233.072C349.387 227.314 354.568 222.037 360.133 217.24L359.48 216.482ZM343.826 232.425C338.994 238.031 335.025 243.546 331.925 248.972L332.793 249.468C335.856 244.107 339.785 238.644 344.583 233.078L343.826 232.425ZM331.929 248.965C328.828 254.198 327.236 258.72 327.236 262.51H328.236C328.236 258.981 329.727 254.643 332.789 249.475L331.929 248.965ZM327.236 262.51C327.236 264.629 327.845 266.303 329.141 267.437C330.424 268.56 332.297 269.078 334.67 269.078V268.078C332.421 268.078 330.827 267.584 329.799 266.685C328.784 265.796 328.236 264.437 328.236 262.51H327.236ZM396.179 230.44V230.94H396.4L396.549 230.777L396.179 230.44ZM393.868 230.44L393.496 230.106L392.745 230.94H393.868V230.44ZM396.468 227.551L396.098 227.215L396.096 227.217L396.468 227.551ZM429.405 190.569L429.029 190.239L429.026 190.243L429.405 190.569ZM446.162 170.345V169.845H445.902L445.753 170.058L446.162 170.345ZM455.697 170.345L455.995 170.746L457.21 169.845H455.697V170.345ZM433.45 190.28L433.096 189.927L433.092 189.931L433.45 190.28ZM399.068 227.262L399.438 227.599L399.439 227.597L399.068 227.262ZM451.074 232.752L451.45 233.081L451.074 232.752ZM425.649 253.843L425.41 253.404L425.406 253.406L425.649 253.843ZM384.044 262.799L384.17 263.283L384.176 263.282L384.044 262.799ZM397.335 263.666L397.088 263.231L397.082 263.235L397.335 263.666ZM412.936 250.665L412.557 250.339L412.936 250.665ZM423.915 232.463L424.38 232.648L424.381 232.644L423.915 232.463ZM428.827 200.104L428.34 199.989L428.337 200.003L428.335 200.017L428.827 200.104ZM433.161 189.991L433.588 190.252L433.593 190.242L433.161 189.991ZM443.273 177.279L443.025 176.845L442.962 176.881L442.912 176.933L443.273 177.279ZM455.408 170.345L455.715 170.739L455.16 169.911L455.408 170.345ZM442.984 180.457L443.312 180.835L443.313 180.833L442.984 180.457ZM436.917 187.391L437.345 187.648L437.351 187.64L437.356 187.631L436.917 187.391ZM436.339 204.149L435.846 204.234L435.848 204.247L435.851 204.259L436.339 204.149ZM432.872 236.508L433.313 236.742L433.316 236.737L432.872 236.508ZM419.582 253.554L419.915 253.926L419.922 253.92L419.582 253.554ZM401.091 265.689L401.288 266.148L401.298 266.143L401.091 265.689ZM382.889 261.933L383.029 262.413L383.038 262.41L383.047 262.407L382.889 261.933ZM448.185 233.329L448.554 233.666L448.556 233.664L448.185 233.329ZM450.785 230.44V229.94H450.562L450.413 230.106L450.785 230.44ZM453.096 230.44L453.473 230.77L454.198 229.94H453.096V230.44ZM396.179 229.94H393.868V230.94H396.179V229.94ZM394.239 230.775L396.839 227.886L396.096 227.217L393.496 230.106L394.239 230.775ZM396.838 227.888C410.515 212.862 421.497 200.531 429.784 190.895L429.026 190.243C420.748 199.869 409.772 212.192 396.098 227.215L396.838 227.888ZM429.78 190.9C438.253 181.271 443.857 174.51 446.572 170.632L445.753 170.058C443.074 173.884 437.506 180.606 429.029 190.239L429.78 190.9ZM446.162 170.845H455.697V169.845H446.162V170.845ZM455.399 169.943C449.399 174.395 441.964 181.059 433.096 189.927L433.803 190.634C442.656 181.781 450.052 175.155 455.995 170.746L455.399 169.943ZM433.092 189.931C424.418 198.798 412.952 211.131 398.697 226.927L399.439 227.597C413.691 211.805 425.146 199.483 433.807 190.63L433.092 189.931ZM398.698 226.926L395.809 230.104L396.549 230.777L399.438 227.599L398.698 226.926ZM450.698 232.422C442.639 241.633 434.208 248.622 425.41 253.404L425.888 254.282C434.81 249.433 443.33 242.362 451.45 233.081L450.698 232.422ZM425.406 253.406C416.8 258.187 408.311 260.566 399.935 260.566V261.566C408.508 261.566 417.162 259.13 425.892 254.28L425.406 253.406ZM399.935 260.566C393.552 260.566 388.207 261.146 383.913 262.317L384.176 263.282C388.356 262.142 393.605 261.566 399.935 261.566V260.566ZM383.918 262.316C381.683 262.899 379.961 263.565 378.787 264.331C377.617 265.094 376.899 266.021 376.899 267.133H377.899C377.899 266.512 378.289 265.85 379.333 265.168C380.375 264.49 381.975 263.856 384.17 263.283L383.918 262.316ZM376.899 267.133C376.899 267.451 376.971 267.754 377.133 268.022C377.294 268.291 377.527 268.498 377.806 268.654C378.351 268.956 379.103 269.078 379.999 269.078V268.078C379.163 268.078 378.614 267.959 378.292 267.78C378.138 267.694 378.046 267.601 377.99 267.508C377.935 267.416 377.899 267.297 377.899 267.133H376.899ZM379.999 269.078C386.067 269.078 391.932 267.413 397.587 264.098L397.082 263.235C391.566 266.468 385.874 268.078 379.999 268.078V269.078ZM397.581 264.101C403.413 260.796 408.658 256.424 413.316 250.99L412.557 250.339C407.969 255.692 402.813 259.987 397.088 263.231L397.581 264.101ZM413.316 250.99C417.975 245.554 421.663 239.44 424.38 232.648L423.451 232.277C420.774 238.969 417.143 244.989 412.557 250.339L413.316 250.99ZM424.381 232.644C427.099 225.655 428.46 218.563 428.46 211.372H427.46C427.46 218.434 426.124 225.403 423.449 232.282L424.381 232.644ZM428.46 211.372C428.46 207.156 428.748 203.43 429.319 200.191L428.335 200.017C427.751 203.326 427.46 207.112 427.46 211.372H428.46ZM429.314 200.218C430.07 197.005 431.491 193.683 433.587 190.252L432.734 189.731C430.593 193.234 429.125 196.654 428.34 199.989L429.314 200.218ZM433.593 190.242C435.684 186.631 439.025 182.426 443.634 177.625L442.912 176.933C438.276 181.762 434.875 186.033 432.728 189.741L433.593 190.242ZM443.521 177.713L455.656 170.779L455.16 169.911L443.025 176.845L443.521 177.713ZM455.101 169.95C449.896 173.998 445.747 177.375 442.655 180.081L443.313 180.833C446.385 178.146 450.518 174.782 455.715 170.739L455.101 169.95ZM442.657 180.079C439.746 182.602 437.674 184.959 436.478 187.152L437.356 187.631C438.471 185.586 440.444 183.32 443.312 180.835L442.657 180.079ZM436.488 187.134C435.284 189.14 434.683 191.348 434.683 193.747H435.683C435.683 191.524 436.238 189.494 437.345 187.648L436.488 187.134ZM434.683 193.747C434.683 196.294 435.074 199.794 435.846 204.234L436.832 204.063C436.063 199.643 435.683 196.209 435.683 193.747H434.683ZM435.851 204.259C436.806 208.46 437.284 212.756 437.284 217.15H438.284C438.284 212.683 437.798 208.312 436.826 204.038L435.851 204.259ZM437.284 217.15C437.284 223.612 435.669 229.987 432.427 236.279L433.316 236.737C436.624 230.316 438.284 223.786 438.284 217.15H437.284ZM432.43 236.273C429.184 242.383 424.79 248.022 419.241 253.188L419.922 253.92C425.545 248.685 430.011 242.959 433.313 236.742L432.43 236.273ZM419.248 253.182C413.699 258.156 407.578 262.173 400.883 265.234L401.298 266.143C408.086 263.04 414.292 258.967 419.915 253.926L419.248 253.182ZM400.894 265.229C394.211 268.093 387.44 269.522 380.577 269.522V270.522C387.583 270.522 394.487 269.063 401.288 266.148L400.894 265.229ZM380.577 269.522C379.072 269.522 378.028 269.284 377.375 268.876C376.761 268.492 376.454 267.936 376.454 267.133H375.454C375.454 268.256 375.918 269.145 376.845 269.724C377.733 270.279 379 270.522 380.577 270.522V269.522ZM376.454 267.133C376.454 266.284 376.909 265.453 377.988 264.644C379.074 263.829 380.742 263.08 383.029 262.413L382.749 261.453C380.413 262.134 378.613 262.925 377.388 263.844C376.156 264.768 375.454 265.864 375.454 267.133H376.454ZM383.047 262.407C387.604 260.888 393.134 260.121 399.646 260.121V259.121C393.061 259.121 387.418 259.896 382.73 261.458L383.047 262.407ZM399.646 260.121C416.212 260.121 432.516 251.251 448.554 233.666L447.815 232.993C431.88 250.464 415.824 259.121 399.646 259.121V260.121ZM448.556 233.664L451.157 230.775L450.413 230.106L447.813 232.995L448.556 233.664ZM450.785 230.94H453.096V229.94H450.785V230.94ZM452.72 230.111L450.698 232.422L451.45 233.081L453.473 230.77L452.72 230.111ZM434.682 268L435.062 267.675L435.037 267.645L435.008 267.62L434.682 268ZM443.35 240.264L443.755 240.557L443.761 240.548L443.35 240.264ZM477.442 200.681V200.181H477.23L477.083 200.334L477.442 200.681ZM494.778 200.681L495.001 201.129L494.778 200.181V200.681ZM487.844 205.304L488.152 205.697L487.844 205.304ZM478.598 213.394L478.255 213.03L478.251 213.034L478.598 213.394ZM453.173 238.819L452.809 238.476L452.809 238.476L453.173 238.819ZM439.883 254.71L440.292 254.996L440.299 254.987L439.883 254.71ZM450.862 263.955L451.124 264.381L451.133 264.375L451.143 264.369L450.862 263.955ZM467.041 250.954L466.712 250.577L466.706 250.583L467.041 250.954ZM484.665 233.329L484.294 232.995L484.29 232.999L484.665 233.329ZM487.266 230.44V229.94H487.043L486.894 230.106L487.266 230.44ZM489.577 230.44L489.953 230.77L490.679 229.94H489.577V230.44ZM487.555 232.752L487.928 233.085L487.931 233.081L487.555 232.752ZM468.486 252.109L468.816 252.485L468.822 252.479L468.486 252.109ZM451.151 265.4L451.413 265.826L451.417 265.823L451.151 265.4ZM534.649 150.12L534.283 149.779L534.277 149.786L534.271 149.793L534.649 150.12ZM525.692 157.921L525.953 158.348L525.961 158.343L525.969 158.337L525.692 157.921ZM518.18 151.854L517.815 151.513L517.808 151.519L517.802 151.526L518.18 151.854ZM527.426 144.342L527.686 144.769L527.695 144.763L527.703 144.758L527.426 144.342ZM439.016 269.522C437.432 269.522 436.125 268.915 435.062 267.675L434.302 268.325C435.55 269.781 437.132 270.522 439.016 270.522V269.522ZM435.008 267.62C433.78 266.568 433.16 265.171 433.16 263.377H432.16C432.16 265.435 432.887 267.12 434.357 268.38L435.008 267.62ZM433.16 263.377C433.16 260.685 434.02 257.437 435.786 253.619C437.55 249.806 440.203 245.453 443.754 240.557L442.945 239.97C439.37 244.898 436.678 249.308 434.878 253.2C433.081 257.087 432.16 260.484 432.16 263.377H433.16ZM443.761 240.548C450.672 230.566 462.014 217.395 477.802 201.029L477.083 200.334C461.283 216.712 449.896 229.929 442.939 239.979L443.761 240.548ZM477.442 201.181H494.778V200.181H477.442V201.181ZM494.554 200.234C492.585 201.219 490.244 202.782 487.535 204.911L488.152 205.697C490.836 203.589 493.118 202.07 495.001 201.129L494.554 200.234ZM487.535 204.911C484.823 207.042 481.729 209.749 478.255 213.03L478.941 213.757C482.401 210.49 485.471 207.804 488.152 205.697L487.535 204.911ZM478.251 213.034C467.655 223.245 459.173 231.726 452.809 238.476L453.537 239.162C459.885 232.429 468.354 223.96 478.945 213.754L478.251 213.034ZM452.809 238.476C446.639 245.032 442.187 250.352 439.467 254.432L440.299 254.987C442.972 250.977 447.379 245.704 453.537 239.162L452.809 238.476ZM439.473 254.423C436.762 258.296 435.338 261.581 435.338 264.244H436.338C436.338 261.899 437.61 258.828 440.292 254.996L439.473 254.423ZM435.338 264.244C435.338 265.742 435.635 266.958 436.314 267.807C437.01 268.677 438.039 269.078 439.305 269.078V268.078C438.259 268.078 437.555 267.757 437.095 267.182C436.618 266.586 436.338 265.635 436.338 264.244H435.338ZM439.305 269.078C442.153 269.078 446.11 267.466 451.124 264.381L450.6 263.529C445.597 266.608 441.85 268.078 439.305 268.078V269.078ZM451.143 264.369C455.983 261.077 461.394 256.728 467.376 251.325L466.706 250.583C460.746 255.966 455.371 260.284 450.581 263.542L451.143 264.369ZM467.37 251.33C473.551 245.922 479.441 240.032 485.041 233.66L484.29 232.999C478.718 239.34 472.859 245.199 466.712 250.577L467.37 251.33ZM485.037 233.664L487.637 230.775L486.894 230.106L484.294 232.995L485.037 233.664ZM487.266 230.94H489.577V229.94H487.266V230.94ZM489.201 230.111L487.178 232.422L487.931 233.081L489.953 230.77L489.201 230.111ZM487.181 232.419C480.836 239.534 474.492 245.974 468.15 251.739L468.822 252.479C475.193 246.688 481.561 240.223 487.928 233.084L487.181 232.419ZM468.156 251.734C461.813 257.308 456.056 261.72 450.884 264.977L451.417 265.823C456.647 262.53 462.447 258.082 468.816 252.485L468.156 251.734ZM450.889 264.974C445.899 268.044 441.954 269.522 439.016 269.522V270.522C442.242 270.522 446.386 268.919 451.413 265.826L450.889 264.974ZM536.093 141.375C536.909 141.375 537.429 141.536 537.737 141.775C538.02 141.996 538.194 142.339 538.194 142.897H539.194C539.194 142.108 538.933 141.439 538.35 140.986C537.791 140.551 537.011 140.375 536.093 140.375V141.375ZM538.194 142.897C538.194 144.617 536.97 146.9 534.283 149.779L535.014 150.462C537.72 147.562 539.194 145.03 539.194 142.897H538.194ZM534.271 149.793C531.799 152.645 528.848 155.216 525.415 157.505L525.969 158.337C529.471 156.003 532.491 153.374 535.027 150.448L534.271 149.793ZM525.431 157.495C521.999 159.592 519.107 160.599 516.736 160.599V161.599C519.372 161.599 522.451 160.488 525.953 158.348L525.431 157.495ZM516.736 160.599C516.027 160.599 515.589 160.443 515.331 160.217C515.086 160.003 514.924 159.655 514.924 159.077H513.924C513.924 159.847 514.147 160.51 514.673 160.97C515.186 161.419 515.903 161.599 516.736 161.599V160.599ZM514.924 159.077C514.924 157.344 516.067 155.056 518.558 152.181L517.802 151.526C515.286 154.43 513.924 156.958 513.924 159.077H514.924ZM518.546 152.195C521.211 149.34 524.257 146.864 527.686 144.769L527.165 143.915C523.66 146.057 520.543 148.589 517.815 151.513L518.546 152.195ZM527.703 144.758C531.145 142.463 533.932 141.375 536.093 141.375V140.375C533.632 140.375 530.64 141.598 527.148 143.926L527.703 144.758ZM479.458 242.286L479.896 242.528L479.902 242.516L479.458 242.286ZM491.304 226.107L491.664 226.453L491.67 226.447L491.304 226.107ZM508.061 211.66L508.345 212.073L508.353 212.066L508.061 211.66ZM527.13 201.259L526.956 200.791L526.951 200.792L527.13 201.259ZM548.51 214.839L548.91 215.139L548.916 215.131L548.51 214.839ZM529.441 236.219L529.081 235.872L529.077 235.876L529.441 236.219ZM510.95 253.554L511.266 253.942L510.95 253.554ZM493.904 265.4L494.141 265.84L494.147 265.837L493.904 265.4ZM501.416 259.043L501.704 259.452L501.71 259.448L501.416 259.043ZM528.286 235.063L527.928 234.713L527.925 234.717L528.286 235.063ZM546.777 214.55L547.179 214.847L547.185 214.839L546.777 214.55ZM535.509 203.282L535.285 202.834L535.277 202.838L535.509 203.282ZM521.063 212.816L521.36 213.218L521.37 213.211L521.063 212.816ZM505.75 225.818L505.403 225.457L505.75 225.818ZM491.882 240.264L491.506 239.933L491.499 239.942L491.882 240.264ZM482.058 253.843L481.628 253.589L482.058 253.843ZM568.735 232.752L569.105 233.088L569.111 233.081L568.735 232.752ZM542.154 258.466L542.477 258.847L542.482 258.843L542.154 258.466ZM506.328 285.913L506.04 285.504L506.037 285.506L506.328 285.913ZM459.523 316.828L459.259 316.403L459.259 316.403L459.523 316.828ZM416.184 345.72L416.473 346.128L416.476 346.126L416.184 345.72ZM379.491 374.034L379.167 373.654L379.491 374.034ZM354.355 398.014L353.982 397.682L353.977 397.687L354.355 398.014ZM371.402 408.127L371.665 408.552L371.669 408.549L371.402 408.127ZM403.472 383.279L403.14 382.905L403.14 382.905L403.472 383.279ZM440.454 346.586L440.822 346.925L440.822 346.924L440.454 346.586ZM478.013 301.515L477.619 301.208L477.616 301.212L478.013 301.515ZM490.726 285.046L490.334 284.736L490.329 284.742L490.726 285.046ZM506.328 265.4L505.937 265.087L505.936 265.089L506.328 265.4ZM528.575 237.663L529.066 237.574L528.871 236.497L528.185 237.35L528.575 237.663ZM529.152 240.841V241.341H529.752L529.644 240.752L529.152 240.841ZM523.374 240.841L523.016 240.492L522.187 241.341H523.374V240.841ZM547.643 215.994L548.001 216.344L548.015 216.329L548.028 216.314L547.643 215.994ZM560.356 200.681V200.181H560.121L559.971 200.362L560.356 200.681ZM576.535 200.681L576.823 201.09L578.115 200.181H576.535V200.681ZM560.067 213.394L559.747 213.01L560.067 213.394ZM543.31 228.418L542.962 228.058L543.31 228.418ZM528.575 243.442L528.207 243.103L528.184 243.128L528.165 243.155L528.575 243.442ZM476.858 314.805L477.255 315.108L477.256 315.108L476.858 314.805ZM440.165 359.588L440.529 359.93L440.532 359.928L440.165 359.588ZM389.604 403.504L389.332 403.084L389.329 403.086L389.604 403.504ZM351.755 397.148L352.132 397.476L351.755 397.148ZM378.336 371.723L378.658 372.104L378.662 372.102L378.336 371.723ZM415.607 342.83L415.896 343.238L415.607 342.83ZM458.078 315.383L458.331 315.814L458.334 315.813L458.078 315.383ZM501.127 287.647L500.843 287.235L500.84 287.237L501.127 287.647ZM538.109 259.621L537.79 259.236L537.787 259.239L538.109 259.621ZM565.845 233.329L565.474 232.995L565.471 232.998L565.845 233.329ZM568.446 230.44V229.94H568.223L568.074 230.106L568.446 230.44ZM570.757 230.44L571.133 230.77L571.859 229.94H570.757V230.44ZM482.058 268.945C479.805 268.945 478.166 268.079 477.062 266.358C475.934 264.598 475.335 261.895 475.335 258.177H474.335C474.335 261.97 474.94 264.901 476.22 266.897C477.524 268.932 479.496 269.945 482.058 269.945V268.945ZM475.335 258.177C475.335 253.273 476.844 248.059 479.896 242.528L479.02 242.045C475.909 247.684 474.335 253.064 474.335 258.177H475.335ZM479.902 242.516C482.766 236.979 486.685 231.624 491.664 226.453L490.944 225.76C485.907 230.99 481.928 236.422 479.014 242.056L479.902 242.516ZM491.67 226.447C496.653 221.081 502.211 216.29 508.344 212.072L507.778 211.248C501.585 215.506 495.971 220.346 490.937 225.766L491.67 226.447ZM508.353 212.066C514.485 207.659 520.803 204.214 527.309 201.726L526.951 200.792C520.359 203.313 513.965 206.801 507.769 211.254L508.353 212.066ZM527.304 201.728C534.001 199.241 540.298 198.003 546.199 198.003V197.003C540.158 197.003 533.742 198.27 526.956 200.791L527.304 201.728ZM546.199 198.003C548.653 198.003 550.401 198.478 551.528 199.344C552.63 200.192 553.211 201.473 553.211 203.282H554.211C554.211 201.238 553.54 199.63 552.138 198.552C550.76 197.492 548.753 197.003 546.199 197.003V198.003ZM553.211 203.282C553.211 206.002 551.563 209.742 548.104 214.546L548.916 215.131C552.391 210.304 554.211 206.34 554.211 203.282H553.211ZM548.11 214.539C544.663 219.135 538.325 226.242 529.081 235.872L529.802 236.565C539.048 226.934 545.423 219.788 548.91 215.139L548.11 214.539ZM529.077 235.876C522.927 242.411 516.779 248.174 510.635 253.166L511.266 253.942C517.449 248.918 523.629 243.124 529.805 236.561L529.077 235.876ZM510.635 253.166C504.487 258.161 498.829 262.091 493.661 264.963L494.147 265.837C499.38 262.93 505.086 258.963 511.266 253.942L510.635 253.166ZM493.667 264.959C488.674 267.648 484.818 268.945 482.058 268.945V269.945C485.077 269.945 489.118 268.545 494.141 265.84L493.667 264.959ZM482.347 268.5C484.572 268.5 487.299 267.719 490.505 266.213C493.719 264.704 497.453 262.447 501.704 259.452L501.128 258.635C496.904 261.611 493.223 263.832 490.08 265.308C486.93 266.788 484.36 267.5 482.347 267.5V268.5ZM501.71 259.448C510.215 253.263 519.193 245.248 528.646 235.409L527.925 234.717C518.502 244.525 509.567 252.497 501.122 258.639L501.71 259.448ZM528.643 235.413C537.696 226.167 543.882 219.307 547.179 214.847L546.375 214.252C543.123 218.652 536.981 225.468 527.928 234.713L528.643 235.413ZM547.185 214.839C550.465 210.207 552.188 206.435 552.188 203.571H551.188C551.188 206.099 549.637 209.647 546.369 214.261L547.185 214.839ZM552.188 203.571C552.188 202.2 551.733 201.098 550.764 200.357C549.82 199.635 548.463 199.315 546.777 199.315V200.315C548.364 200.315 549.463 200.621 550.157 201.151C550.825 201.662 551.188 202.437 551.188 203.571H552.188ZM546.777 199.315C543.771 199.315 539.931 200.512 535.285 202.835L535.732 203.729C540.332 201.429 544.004 200.315 546.777 200.315V199.315ZM535.277 202.838C530.814 205.167 525.973 208.364 520.756 212.421L521.37 213.211C526.553 209.179 531.343 206.019 535.74 203.725L535.277 202.838ZM520.765 212.414C515.546 216.28 510.426 220.628 505.403 225.457L506.096 226.178C511.09 221.376 516.178 217.057 521.36 213.218L520.765 212.414ZM505.403 225.457C500.386 230.281 495.754 235.107 491.506 239.933L492.257 240.594C496.485 235.79 501.098 230.984 506.096 226.178L505.403 225.457ZM491.499 239.942C487.441 244.773 484.149 249.322 481.628 253.589L482.489 254.097C484.976 249.889 488.233 245.385 492.264 240.585L491.499 239.942ZM481.628 253.589C479.107 257.855 477.802 261.512 477.802 264.533H478.802C478.802 261.776 480.002 258.305 482.489 254.097L481.628 253.589ZM477.802 264.533C477.802 265.788 478.172 266.813 478.988 267.513C479.79 268.2 480.939 268.5 482.347 268.5V267.5C481.059 267.5 480.186 267.222 479.639 266.754C479.107 266.298 478.802 265.59 478.802 264.533H477.802ZM568.364 232.416C560.868 240.681 552.023 249.238 541.826 258.088L542.482 258.843C552.702 249.973 561.577 241.387 569.105 233.088L568.364 232.416ZM541.83 258.084C531.636 266.74 519.706 275.88 506.04 285.504L506.616 286.322C520.301 276.685 532.255 267.526 542.477 258.847L541.83 258.084ZM506.037 285.506C492.565 295.129 476.973 305.428 459.259 316.403L459.786 317.253C477.513 306.269 493.125 295.958 506.618 286.32L506.037 285.506ZM459.259 316.403C444.033 325.846 429.578 335.483 415.893 345.314L416.476 346.126C430.142 336.309 444.579 326.685 459.786 317.253L459.259 316.403ZM415.895 345.312C402.017 355.142 389.774 364.589 379.167 373.654L379.816 374.414C390.396 365.373 402.615 355.944 416.473 346.128L415.895 345.312ZM379.167 373.654C368.563 382.715 360.166 390.725 353.982 397.682L354.729 398.346C360.872 391.436 369.232 383.459 379.816 374.414L379.167 373.654ZM353.977 397.687C350.885 401.263 348.552 404.395 346.989 407.081C345.433 409.755 344.61 412.039 344.61 413.905H345.61C345.61 412.304 346.327 410.206 347.853 407.583C349.373 404.972 351.662 401.892 354.734 398.341L353.977 397.687ZM344.61 413.905C344.61 415.041 344.894 415.986 345.551 416.642C346.207 417.299 347.152 417.583 348.288 417.583V416.583C347.306 416.583 346.661 416.338 346.258 415.935C345.855 415.532 345.61 414.887 345.61 413.905H344.61ZM348.288 417.583C354.213 417.583 362.018 414.533 371.665 408.552L371.138 407.702C361.524 413.663 353.92 416.583 348.288 416.583V417.583ZM371.669 408.549C381.137 402.559 391.849 394.258 403.804 383.653L403.14 382.905C391.21 393.488 380.542 401.752 371.134 407.704L371.669 408.549ZM403.803 383.654C415.568 373.239 427.908 360.995 440.822 346.925L440.085 346.248C427.19 360.299 414.875 372.517 403.14 382.905L403.803 383.654ZM440.822 346.924C453.546 333.044 466.075 318.008 478.411 301.818L477.616 301.212C465.297 317.38 452.787 332.392 440.085 346.249L440.822 346.924ZM478.408 301.822C482.454 296.62 486.692 291.13 491.123 285.351L490.329 284.742C485.9 290.52 481.663 296.008 477.619 301.208L478.408 301.822ZM491.118 285.357C495.548 279.771 500.748 273.223 506.719 265.711L505.936 265.089C499.965 272.601 494.764 279.15 490.334 284.736L491.118 285.357ZM506.718 265.712C512.881 258.008 520.297 248.763 528.964 237.977L528.185 237.35C519.517 248.137 512.101 257.382 505.937 265.087L506.718 265.712ZM528.083 237.753L528.66 240.931L529.644 240.752L529.066 237.574L528.083 237.753ZM529.152 240.341H523.374V241.341H529.152V240.341ZM523.732 241.191L548.001 216.344L547.286 215.645L523.016 240.492L523.732 241.191ZM548.028 216.314L560.741 201.001L559.971 200.362L547.259 215.675L548.028 216.314ZM560.356 201.181H576.535V200.181H560.356V201.181ZM576.248 200.273C571.034 203.941 565.534 208.187 559.747 213.01L560.387 213.778C566.157 208.97 571.635 204.741 576.823 201.09L576.248 200.273ZM559.747 213.01C553.959 217.833 548.364 222.849 542.962 228.058L543.657 228.778C549.041 223.586 554.618 218.586 560.387 213.778L559.747 213.01ZM542.962 228.058C537.563 233.264 532.644 238.28 528.207 243.103L528.943 243.78C533.365 238.973 538.27 233.972 543.657 228.778L542.962 228.058ZM528.165 243.155C508.328 271.466 491.093 295.248 476.46 314.503L477.256 315.108C491.9 295.84 509.143 272.046 528.984 243.729L528.165 243.155ZM476.46 314.502C461.633 333.951 449.413 348.864 439.798 359.248L440.532 359.928C450.178 349.509 462.42 334.567 477.255 315.108L476.46 314.502ZM439.8 359.246C421.905 378.295 405.082 392.904 389.332 403.084L389.875 403.924C405.714 393.687 422.598 379.018 440.529 359.93L439.8 359.246ZM389.329 403.086C373.567 413.466 360.087 418.606 348.866 418.606V419.606C360.373 419.606 374.051 414.344 389.879 403.921L389.329 403.086ZM348.866 418.606C346.598 418.606 344.987 418.201 343.954 417.47C342.953 416.76 342.432 415.698 342.432 414.194H341.432C341.432 415.964 342.066 417.358 343.376 418.286C344.655 419.191 346.511 419.606 348.866 419.606V418.606ZM342.432 414.194C342.432 412.397 343.2 410.105 344.821 407.293C346.436 404.49 348.869 401.219 352.132 397.476L351.378 396.819C348.092 400.588 345.614 403.914 343.954 406.793C342.3 409.664 341.432 412.138 341.432 414.194H342.432ZM352.132 397.476C358.658 389.99 367.498 381.533 378.658 372.104L378.013 371.341C366.83 380.788 357.95 389.281 351.378 396.819L352.132 397.476ZM378.662 372.102C389.627 362.675 402.038 353.054 415.896 343.238L415.318 342.422C401.439 352.253 389.003 361.894 378.01 371.343L378.662 372.102ZM415.896 343.238C429.752 333.423 443.897 324.282 458.331 315.814L457.825 314.952C443.366 323.434 429.197 332.591 415.318 342.422L415.896 343.238ZM458.334 315.813C473.56 306.754 487.92 297.502 501.414 288.056L500.84 287.237C487.368 296.667 473.029 305.906 457.822 314.953L458.334 315.813ZM501.411 288.058C515.098 278.612 527.438 269.261 538.431 260.004L537.787 259.239C526.822 268.473 514.508 277.805 500.843 287.235L501.411 288.058ZM538.428 260.007C549.614 250.749 558.879 241.967 566.22 233.661L565.471 232.998C558.173 241.256 548.948 250.002 537.79 259.236L538.428 260.007ZM566.217 233.664L568.817 230.775L568.074 230.106L565.474 232.995L566.217 233.664ZM568.446 230.94H570.757V229.94H568.446V230.94ZM570.381 230.111L568.358 232.422L569.111 233.081L571.133 230.77L570.381 230.111ZM570.829 230.44V230.94H571.052L571.201 230.775L570.829 230.44ZM568.518 230.44L568.146 230.106L567.395 230.94H568.518V230.44ZM571.118 227.551L570.75 227.213L570.747 227.217L571.118 227.551ZM595.099 205.593L595.39 205.999L595.397 205.994L595.099 205.593ZM617.345 198.948L617.699 198.594L617.345 198.948ZM613.878 217.728L613.462 217.45L613.878 217.728ZM595.965 238.53L595.608 238.181L594.777 239.03H595.965V238.53ZM598.855 238.53L599.256 238.828L599.847 238.03H598.855V238.53ZM593.076 246.331L593.449 246.664L593.464 246.647L593.478 246.629L593.076 246.331ZM573.718 268V268.5H573.942L574.091 268.333L573.718 268ZM554.65 268L554.357 267.595L553.103 268.5H554.65V268ZM576.03 250.665L575.696 250.292L576.03 250.665ZM596.254 231.018L595.89 230.675L596.254 231.018ZM610.989 213.683L610.587 213.385L610.586 213.388L610.989 213.683ZM602.611 202.704L602.857 203.139L602.864 203.135L602.87 203.131L602.611 202.704ZM588.164 213.105L588.487 213.487L588.489 213.486L588.164 213.105ZM573.43 227.551L573.801 227.886L573.802 227.884L573.43 227.551ZM612.723 267.133L612.332 267.446L612.341 267.457L612.351 267.468L612.723 267.133ZM615.034 247.776L615.445 248.061L615.034 247.776ZM626.302 234.774L626.648 235.135L626.648 235.135L626.302 234.774ZM639.881 222.351L640.209 222.728L640.211 222.727L639.881 222.351ZM651.438 211.372L651.074 211.029L651.438 211.372ZM641.037 203.86L641.289 204.291L641.296 204.288L641.302 204.284L641.037 203.86ZM625.724 214.839L625.405 214.453L625.724 214.839ZM608.678 230.151L609.025 230.511L609.025 230.511L608.678 230.151ZM593.076 246.331V246.831H593.3L593.449 246.664L593.076 246.331ZM590.765 246.331L590.393 245.997L589.645 246.831H590.765V246.331ZM606.944 229.574L606.597 229.214L606.944 229.574ZM640.17 202.415L639.92 201.982L639.913 201.986L640.17 202.415ZM658.083 200.393L657.751 200.766L657.773 200.786L657.797 200.802L658.083 200.393ZM656.061 219.461L655.665 219.156L655.661 219.161L655.656 219.167L656.061 219.461ZM644.504 232.174L644.842 232.542L644.504 232.174ZM630.636 244.309L630.316 243.924L630.636 244.309ZM618.79 255.287L618.427 254.944L618.421 254.95L618.416 254.955L618.79 255.287ZM615.323 267.422L614.969 267.776L614.989 267.795L615.011 267.813L615.323 267.422ZM631.214 263.666L631.473 264.094L631.214 263.666ZM648.838 250.665L649.161 251.046L648.838 250.665ZM666.751 233.329L667.121 233.665L667.123 233.664L666.751 233.329ZM669.351 230.44V229.94H669.129L668.98 230.106L669.351 230.44ZM671.663 230.44L672.039 230.77L672.764 229.94H671.663V230.44ZM669.64 232.752L670.014 233.084L670.016 233.081L669.64 232.752ZM650.282 251.532L649.963 251.146L649.958 251.151L650.282 251.532ZM632.08 265.111L632.333 265.542L632.344 265.536L632.08 265.111ZM570.829 229.94H568.518V230.94H570.829V229.94ZM568.89 230.775L571.49 227.886L570.747 227.217L568.146 230.106L568.89 230.775ZM571.487 227.889C579.946 218.661 587.914 211.367 595.39 205.999L594.807 205.187C587.259 210.606 579.24 217.951 570.75 227.213L571.487 227.889ZM595.397 205.994C602.901 200.415 608.757 197.714 613.012 197.714V196.714C608.406 196.714 602.32 199.6 594.8 205.192L595.397 205.994ZM613.012 197.714C614.622 197.714 615.936 198.246 616.992 199.302L617.699 198.594C616.443 197.339 614.869 196.714 613.012 196.714V197.714ZM616.992 199.302C618.037 200.347 618.579 201.752 618.579 203.571H619.579C619.579 201.537 618.965 199.86 617.699 198.594L616.992 199.302ZM618.579 203.571C618.579 207.673 616.899 212.295 613.462 217.45L614.294 218.005C617.792 212.759 619.579 207.943 619.579 203.571H618.579ZM613.462 217.45C610.022 222.611 604.077 229.519 595.608 238.181L596.323 238.88C604.803 230.206 610.801 223.246 614.294 218.005L613.462 217.45ZM595.965 239.03H598.855V238.03H595.965V239.03ZM598.453 238.232L592.674 246.033L593.478 246.629L599.256 238.828L598.453 238.232ZM592.703 245.998L573.346 267.667L574.091 268.333L593.449 246.664L592.703 245.998ZM573.718 267.5H554.65V268.5H573.718V267.5ZM554.942 268.405C561.893 263.386 569.033 257.596 576.363 251.037L575.696 250.292C568.388 256.831 561.275 262.598 554.357 267.595L554.942 268.405ZM576.363 251.037C583.692 244.48 590.444 237.921 596.618 231.361L595.89 230.675C589.737 237.213 583.006 243.752 575.696 250.292L576.363 251.037ZM596.618 231.361C602.79 224.803 607.717 219.008 611.393 213.978L610.586 213.388C606.942 218.374 602.045 224.136 595.89 230.675L596.618 231.361ZM611.391 213.981C613.326 211.369 614.788 209.105 615.768 207.194C616.742 205.294 617.268 203.691 617.268 202.415H616.268C616.268 203.45 615.83 204.881 614.878 206.737C613.932 208.582 612.505 210.797 610.587 213.385L611.391 213.981ZM617.268 202.415C617.268 201.076 616.905 199.983 616.097 199.232C615.295 198.487 614.139 198.159 612.723 198.159V199.159C614.003 199.159 614.87 199.457 615.416 199.964C615.956 200.465 616.268 201.25 616.268 202.415H617.268ZM612.723 198.159C610.26 198.159 606.784 199.578 602.351 202.277L602.87 203.131C607.298 200.436 610.563 199.159 612.723 199.159V198.159ZM602.365 202.269C597.899 204.793 593.057 208.28 587.84 212.724L588.489 213.486C593.673 209.07 598.462 205.623 602.857 203.139L602.365 202.269ZM587.841 212.723C582.814 216.977 577.886 221.809 573.057 227.218L573.802 227.884C578.604 222.507 583.499 217.708 588.487 213.487L587.841 212.723ZM573.058 227.217L570.458 230.106L571.201 230.775L573.801 227.886L573.058 227.217ZM618.501 269.522C616.555 269.522 614.756 268.645 613.094 266.799L612.351 267.468C614.157 269.474 616.21 270.522 618.501 270.522V269.522ZM613.113 266.821C611.644 264.985 610.911 262.88 610.911 260.488H609.911C609.911 263.104 610.719 265.429 612.332 267.446L613.113 266.821ZM610.911 260.488C610.911 256.574 612.402 252.435 615.445 248.061L614.624 247.49C611.503 251.976 609.911 256.312 609.911 260.488H610.911ZM615.445 248.061C618.505 243.662 622.238 239.353 626.648 235.135L625.956 234.413C621.505 238.67 617.727 243.029 614.624 247.49L615.445 248.061ZM626.648 235.135C631.265 230.71 635.786 226.574 640.209 222.728L639.553 221.973C635.117 225.831 630.584 229.978 625.956 234.413L626.648 235.135ZM640.211 222.727C644.841 218.675 648.706 215.004 651.802 211.714L651.074 211.029C648.006 214.288 644.167 217.936 639.552 221.974L640.211 222.727ZM651.802 211.714C654.899 208.424 656.561 205.508 656.561 202.993H655.561C655.561 205.101 654.141 207.771 651.074 211.029L651.802 211.714ZM656.561 202.993C656.561 201.738 656.191 200.713 655.375 200.013C654.573 199.326 653.424 199.026 652.016 199.026V200.026C653.304 200.026 654.177 200.304 654.724 200.772C655.256 201.228 655.561 201.936 655.561 202.993H656.561ZM652.016 199.026C649.17 199.026 645.408 200.538 640.772 203.436L641.302 204.284C645.912 201.403 649.469 200.026 652.016 200.026V199.026ZM640.785 203.428C636.132 206.142 631.005 209.819 625.405 214.453L626.043 215.224C631.615 210.613 636.696 206.971 641.289 204.291L640.785 203.428ZM625.405 214.453C619.809 219.085 614.117 224.198 608.33 229.792L609.025 230.511C614.796 224.933 620.468 219.837 626.043 215.224L625.405 214.453ZM608.331 229.792C602.737 235.193 597.527 240.595 592.703 245.998L593.449 246.664C598.256 241.281 603.448 235.896 609.025 230.511L608.331 229.792ZM593.076 245.831H590.765V246.831H593.076V245.831ZM591.137 246.665C596.137 241.088 601.521 235.511 607.292 229.933L606.597 229.214C600.81 234.808 595.409 240.402 590.393 245.997L591.137 246.665ZM607.292 229.933C613.062 224.355 618.831 219.163 624.6 214.356L623.959 213.588C618.171 218.411 612.383 223.62 606.597 229.214L607.292 229.933ZM624.6 214.356C630.365 209.552 635.64 205.716 640.427 202.844L639.913 201.986C635.07 204.892 629.751 208.761 623.959 213.588L624.6 214.356ZM640.42 202.848C645.408 199.97 649.358 198.581 652.305 198.581V197.581C649.088 197.581 644.948 199.081 639.92 201.982L640.42 202.848ZM652.305 198.581C654.289 198.581 656.1 199.298 657.751 200.766L658.415 200.019C656.6 198.405 654.558 197.581 652.305 197.581V198.581ZM657.797 200.802C659.549 202.029 660.473 204.063 660.473 207.038H661.473C661.473 203.849 660.47 201.453 658.37 199.983L657.797 200.802ZM660.473 207.038C660.473 210.941 658.894 214.977 655.665 219.156L656.456 219.767C659.777 215.47 661.473 211.224 661.473 207.038H660.473ZM655.656 219.167C652.598 223.373 648.769 227.586 644.166 231.805L644.842 232.542C649.485 228.287 653.36 224.025 656.465 219.755L655.656 219.167ZM644.166 231.805C639.549 236.038 634.932 240.077 630.316 243.924L630.956 244.693C635.585 240.835 640.214 236.785 644.842 232.542L644.166 231.805ZM630.316 243.924C625.682 247.786 621.718 251.46 618.427 254.944L619.154 255.631C622.411 252.181 626.345 248.535 630.956 244.693L630.316 243.924ZM618.416 254.955C615.307 258.453 613.667 261.652 613.667 264.533H614.667C614.667 262.021 616.11 259.056 619.164 255.62L618.416 254.955ZM613.667 264.533C613.667 265.812 614.099 266.905 614.969 267.776L615.677 267.069C615.006 266.398 614.667 265.565 614.667 264.533H613.667ZM615.011 267.813C616.071 268.661 617.34 269.078 618.79 269.078V268.078C617.544 268.078 616.501 267.725 615.635 267.032L615.011 267.813ZM618.79 269.078C621.829 269.078 626.074 267.371 631.473 264.094L630.954 263.239C625.567 266.51 621.529 268.078 618.79 268.078V269.078ZM631.473 264.094C636.895 260.802 642.791 256.451 649.161 251.046L648.514 250.284C642.172 255.665 636.319 259.982 630.954 263.239L631.473 264.094ZM649.161 251.046C655.534 245.639 661.521 239.845 667.121 233.665L666.38 232.994C660.809 239.141 654.854 244.904 648.514 250.284L649.161 251.046ZM667.123 233.664L669.723 230.775L668.98 230.106L666.379 232.995L667.123 233.664ZM669.351 230.94H671.663V229.94H669.351V230.94ZM671.286 230.111L669.264 232.422L670.016 233.081L672.039 230.77L671.286 230.111ZM669.266 232.419C663.119 239.336 656.684 245.578 649.963 251.147L650.601 251.917C657.364 246.314 663.834 240.036 670.014 233.084L669.266 232.419ZM649.958 251.151C643.423 256.725 637.376 261.236 631.817 264.686L632.344 265.536C637.957 262.052 644.044 257.509 650.607 251.912L649.958 251.151ZM631.828 264.679C626.262 267.942 621.831 269.522 618.501 269.522V270.522C622.105 270.522 626.727 268.829 632.333 265.542L631.828 264.679Z" fill="#0E0E0E"></path>
</svg>